<svg width="24" height="24" viewBox="0 0 24 24" fill="none" xmlns="http://www.w3.org/2000/svg">
<path d="M5 19C3.61667 19 2.43767 18.5123 1.463 17.537C0.488334 16.5617 0.000667349 15.3827 6.82594e-07 14C-0.000665984 12.6173 0.487001 11.4383 1.463 10.463C2.439 9.48767 3.618 9 5 9H16.6L14.6 7H12C11.7167 7 11.4793 6.904 11.288 6.712C11.0967 6.52 11.0007 6.28267 11 6C10.9993 5.71733 11.0953 5.48 11.288 5.288C11.4807 5.096 11.718 5 12 5H14.575C14.8417 5 15.096 5.05 15.338 5.15C15.58 5.25 15.7923 5.39167 15.975 5.575L19.45 9.05C20.75 9.15 21.8333 9.675 22.7 10.625C23.5667 11.575 24 12.7 24 14C24 15.3833 23.5123 16.5627 22.537 17.538C21.5617 18.5133 20.3827 19.0007 19 19C17.6173 18.9993 16.4383 18.5117 15.463 17.537C14.4877 16.5623 14 15.3833 14 14C14 13.7 14.021 13.404 14.063 13.112C14.105 12.82 14.184 12.5327 14.3 12.25L11.85 14.7C11.75 14.8 11.6377 14.875 11.513 14.925C11.3883 14.975 11.259 15 11.125 15H9.9C9.66667 16.1667 9.09167 17.125 8.175 17.875C7.25833 18.625 6.2 19 5 19ZM19 17C19.8333 17 20.5417 16.7083 21.125 16.125C21.7083 15.5417 22 14.8333 22 14C22 13.1667 21.7083 12.4583 21.125 11.875C20.5417 11.2917 19.8333 11 19 11C18.1667 11 17.4583 11.2917 16.875 11.875C16.2917 12.4583 16 13.1667 16 14C16 14.8333 16.2917 15.5417 16.875 16.125C17.4583 16.7083 18.1667 17 19 17ZM5 17C5.63333 17 6.20433 16.8167 6.713 16.45C7.22167 16.0833 7.584 15.6 7.8 15H6C5.71667 15 5.47933 14.904 5.288 14.712C5.09667 14.52 5.00067 14.2827 5 14C4.99933 13.7173 5.09533 13.48 5.288 13.288C5.48067 13.096 5.718 13 6 13H7.8C7.58333 12.4 7.22067 11.9167 6.712 11.55C6.20333 11.1833 5.63267 11 5 11C4.16667 11 3.45833 11.2917 2.875 11.875C2.29167 12.4583 2 13.1667 2 14C2 14.8333 2.29167 15.5417 2.875 16.125C3.45833 16.7083 4.16667 17 5 17Z" fill="#0E7800"/>
</svg>
