<svg width="25" height="25" viewBox="0 0 25 25" fill="none" xmlns="http://www.w3.org/2000/svg">
<path d="M9.37812 6.25005C9.37812 5.42208 9.70704 4.62801 10.2925 4.04255C10.878 3.45708 11.672 3.12817 12.5 3.12817C13.328 3.12817 14.122 3.45708 14.7075 4.04255C15.293 4.62801 15.6219 5.42208 15.6219 6.25005C15.6219 7.07802 15.293 7.87208 14.7075 8.45755C14.122 9.04301 13.328 9.37192 12.5 9.37192C11.672 9.37192 10.878 9.04301 10.2925 8.45755C9.70704 7.87208 9.37812 7.07802 9.37812 6.25005ZM12.5 4.69067C12.2952 4.69067 12.0924 4.73101 11.9033 4.80937C11.7141 4.88774 11.5422 5.0026 11.3974 5.1474C11.2526 5.29221 11.1377 5.46411 11.0593 5.6533C10.981 5.84249 10.9406 6.04527 10.9406 6.25005C10.9406 6.45483 10.981 6.6576 11.0593 6.8468C11.1377 7.03599 11.2526 7.20789 11.3974 7.35269C11.5422 7.49749 11.7141 7.61236 11.9033 7.69072C12.0924 7.76909 12.2952 7.80942 12.5 7.80942C12.9136 7.80942 13.3102 7.64513 13.6026 7.35269C13.8951 7.06025 14.0594 6.66362 14.0594 6.25005C14.0594 5.83648 13.8951 5.43984 13.6026 5.1474C13.3102 4.85496 12.9136 4.69067 12.5 4.69067ZM17.1875 7.0313C17.1875 6.72351 17.2481 6.41874 17.3659 6.13438C17.4837 5.85003 17.6563 5.59165 17.874 5.37402C18.0916 5.15638 18.35 4.98374 18.6343 4.86596C18.9187 4.74817 19.2235 4.68755 19.5312 4.68755C19.839 4.68755 20.1438 4.74817 20.4282 4.86596C20.7125 4.98374 20.9709 5.15638 21.1885 5.37402C21.4062 5.59165 21.5788 5.85003 21.6966 6.13438C21.8144 6.41874 21.875 6.72351 21.875 7.0313C21.875 7.6529 21.6281 8.24904 21.1885 8.68858C20.749 9.12812 20.1529 9.37505 19.5312 9.37505C18.9096 9.37505 18.3135 9.12812 17.874 8.68858C17.4344 8.24904 17.1875 7.6529 17.1875 7.0313ZM19.5312 6.25005C19.324 6.25005 19.1253 6.33236 18.9788 6.47887C18.8323 6.62538 18.75 6.8241 18.75 7.0313C18.75 7.2385 18.8323 7.43721 18.9788 7.58373C19.1253 7.73024 19.324 7.81255 19.5312 7.81255C19.7385 7.81255 19.9372 7.73024 20.0837 7.58373C20.2302 7.43721 20.3125 7.2385 20.3125 7.0313C20.3125 6.8241 20.2302 6.62538 20.0837 6.47887C19.9372 6.33236 19.7385 6.25005 19.5312 6.25005ZM5.46875 4.68755C4.84715 4.68755 4.25101 4.93448 3.81147 5.37402C3.37193 5.81356 3.125 6.4097 3.125 7.0313C3.125 7.6529 3.37193 8.24904 3.81147 8.68858C4.25101 9.12812 4.84715 9.37505 5.46875 9.37505C6.09035 9.37505 6.68649 9.12812 7.12603 8.68858C7.56557 8.24904 7.8125 7.6529 7.8125 7.0313C7.8125 6.4097 7.56557 5.81356 7.12603 5.37402C6.68649 4.93448 6.09035 4.68755 5.46875 4.68755ZM4.6875 7.0313C4.6875 6.8241 4.76981 6.62538 4.91632 6.47887C5.06284 6.33236 5.26155 6.25005 5.46875 6.25005C5.67595 6.25005 5.87466 6.33236 6.02118 6.47887C6.16769 6.62538 6.25 6.8241 6.25 7.0313C6.25 7.2385 6.16769 7.43721 6.02118 7.58373C5.87466 7.73024 5.67595 7.81255 5.46875 7.81255C5.26155 7.81255 5.06284 7.73024 4.91632 7.58373C4.76981 7.43721 4.6875 7.2385 4.6875 7.0313ZM6.66875 10.9375C6.39445 11.4126 6.25002 11.9515 6.25 12.5H3.125V16.4063C3.12487 16.7949 3.2214 17.1775 3.40589 17.5196C3.59037 17.8617 3.85703 18.1525 4.18186 18.3659C4.50668 18.5793 4.87948 18.7086 5.26668 18.7421C5.65388 18.7756 6.04334 18.7123 6.4 18.5579C6.51563 19.075 6.69688 19.5688 6.93125 20.0297C6.33823 20.2692 5.69548 20.3594 5.05946 20.2923C4.42344 20.2253 3.81361 20.0032 3.2835 19.6454C2.7534 19.2876 2.31925 18.8052 2.01918 18.2404C1.7191 17.6756 1.56229 17.0458 1.5625 16.4063V12.5C1.5625 12.0856 1.72712 11.6882 2.02015 11.3952C2.31317 11.1022 2.7106 10.9375 3.125 10.9375H6.66875ZM18.0688 20.0297C18.6618 20.2692 19.3045 20.3594 19.9405 20.2923C20.5766 20.2253 21.1864 20.0032 21.7165 19.6454C22.2466 19.2876 22.6808 18.8052 22.9808 18.2404C23.2809 17.6756 23.4377 17.0458 23.4375 16.4063V12.5C23.4375 12.0856 23.2729 11.6882 22.9799 11.3952C22.6868 11.1022 22.2894 10.9375 21.875 10.9375H18.3313C18.5969 11.3969 18.75 11.9297 18.75 12.5H21.875V16.4063C21.8751 16.7949 21.7786 17.1775 21.5941 17.5196C21.4096 17.8617 21.143 18.1525 20.8181 18.3659C20.4933 18.5793 20.1205 18.7086 19.7333 18.7421C19.3461 18.7756 18.9567 18.7123 18.6 18.5579C18.4813 19.0766 18.3042 19.5672 18.0688 20.0297ZM9.375 10.936C8.9606 10.936 8.56317 11.1006 8.27015 11.3936C7.97712 11.6867 7.8125 12.0841 7.8125 12.4985V17.1875C7.8125 18.4307 8.30636 19.623 9.18544 20.5021C10.0645 21.3812 11.2568 21.875 12.5 21.875C13.7432 21.875 14.9355 21.3812 15.8146 20.5021C16.6936 19.623 17.1875 18.4307 17.1875 17.1875V12.5C17.1875 12.0856 17.0229 11.6882 16.7299 11.3952C16.4368 11.1022 16.0394 10.9375 15.625 10.9375L9.375 10.936ZM9.375 12.4985H15.625V17.1875C15.625 18.0163 15.2958 18.8112 14.7097 19.3973C14.1237 19.9833 13.3288 20.3125 12.5 20.3125C11.6712 20.3125 10.8763 19.9833 10.2903 19.3973C9.70424 18.8112 9.375 18.0163 9.375 17.1875V12.4985Z" fill="#0E7800"/>
</svg>
