<svg width="20" height="20" viewBox="0 0 20 20" fill="none" xmlns="http://www.w3.org/2000/svg">
<path opacity="0.5" d="M9.99996 1.66663C8.35179 1.66663 6.74062 2.15537 5.37021 3.07105C3.9998 3.98672 2.9317 5.28821 2.30097 6.81093C1.67024 8.33365 1.50521 10.0092 1.82675 11.6257C2.1483 13.2422 2.94197 14.7271 4.10741 15.8925C5.27284 17.058 6.7577 17.8516 8.37421 18.1732C9.99072 18.4947 11.6663 18.3297 13.189 17.699C14.7117 17.0682 16.0132 16.0001 16.9289 14.6297C17.8446 13.2593 18.3333 11.6481 18.3333 9.99996C18.3333 8.90561 18.1177 7.82198 17.699 6.81093C17.2802 5.79988 16.6663 4.88122 15.8925 4.1074C15.1187 3.33358 14.2 2.71975 13.189 2.30096C12.1779 1.88217 11.0943 1.66663 9.99996 1.66663ZM9.99996 16.6666C8.68142 16.6666 7.39249 16.2756 6.29616 15.5431C5.19983 14.8105 4.34535 13.7694 3.84077 12.5512C3.33618 11.333 3.20416 9.99256 3.46139 8.69936C3.71863 7.40615 4.35357 6.21826 5.28592 5.28591C6.21827 4.35356 7.40615 3.71863 8.69936 3.46139C9.99257 3.20416 11.333 3.33618 12.5512 3.84076C13.7694 4.34535 14.8105 5.19983 15.5431 6.29616C16.2756 7.39249 16.6666 8.68142 16.6666 9.99996C16.6666 11.7681 15.9643 13.4638 14.714 14.714C13.4638 15.9642 11.7681 16.6666 9.99996 16.6666Z" fill="#0E7800"/>
<path d="M16.6667 9.99996H18.3333C18.3333 8.90561 18.1178 7.82198 17.699 6.81093C17.2802 5.79988 16.6664 4.88122 15.8926 4.1074C15.1187 3.33358 14.2001 2.71975 13.189 2.30096C12.178 1.88217 11.0943 1.66663 10 1.66663V3.33329C11.7681 3.33329 13.4638 4.03567 14.714 5.28591C15.9643 6.53616 16.6667 8.23185 16.6667 9.99996Z" fill="#0E7800"/>
</svg>
